<?xml version="1.0" encoding="iso-8859-1"?>
<!-- Uploaded to: SVG Repo, www.svgrepo.com, Generator: SVG Repo Mixer Tools -->
<svg fill="#000000" version="1.1" id="Capa_1" xmlns="http://www.w3.org/2000/svg" xmlns:xlink="http://www.w3.org/1999/xlink" 
	 viewBox="0 0 60.125 60.125" xml:space="preserve">
<g>
	<g>
		<path d="M4.062,25.125h3v22h2v-22h42v22h2v-22h3c0.6,0,1-0.4,1-1v-4h-2v3h-3h-44h-3v-2h32v-2h-29.6l22.6-16.9l3.4,2.5l1.2-1.6
			l-4-2.9c-0.4-0.3-0.8-0.3-1.2,0l-25.3,18.9h-0.1v0.1l-0.6,0.4c-0.3,0.2-0.4,0.5-0.4,0.8v3.7
			C3.062,24.725,3.462,25.125,4.062,25.125z"/>
		<rect x="28.062" y="9.125" width="4" height="2"/>
		<rect x="25.062" y="13.125" width="10" height="2"/>
		<rect x="11.062" y="27.125" width="2" height="2"/>
		<rect x="15.062" y="27.125" width="2" height="2"/>
		<rect x="19.062" y="27.125" width="2" height="2"/>
		<rect x="23.062" y="27.125" width="2" height="2"/>
		<rect x="27.062" y="27.125" width="2" height="2"/>
		<rect x="31.062" y="27.125" width="2" height="2"/>
		<rect x="35.062" y="27.125" width="2" height="2"/>
		<rect x="39.062" y="27.125" width="2" height="2"/>
		<rect x="43.062" y="27.125" width="2" height="2"/>
		<rect x="47.062" y="27.125" width="2" height="2"/>
		<path d="M29.062,47.125v-14c0-0.6-0.4-1-1-1h-16c-0.6,0-1,0.4-1,1v14h2v-13h14v13H29.062z"/>
		<path d="M49.062,47.125v-14c0-0.6-0.4-1-1-1h-16c-0.6,0-1,0.4-1,1v14h2v-5h6v5h2v-5h6v5H49.062z M33.062,40.125v-6h6v6H33.062z
			 M41.062,40.125v-6h6v6H41.062z"/>
		<path d="M52.962,56.125c-1.6,0-2.5,0.7-3.2,1.2c-0.6,0.5-1,0.8-1.9,0.8c-1,0-1.4-0.3-2-0.8c-0.7-0.5-1.5-1.2-3.1-1.2
			s-2.5,0.7-3.2,1.2c-0.6,0.5-0.9,0.8-1.7,0.8s-1.3-0.4-1.8-0.8c-0.7-0.5-1.5-1.2-3.1-1.2s-2.5,0.7-3.2,1.2c-0.6,0.5-1,0.8-1.9,0.8
			c-1,0-1.4-0.3-2-0.8c-0.7-0.5-1.5-1.2-3.1-1.2s-2.5,0.7-3.2,1.2c-0.6,0.5-1,0.8-1.9,0.8c-1,0-1.4-0.3-2-0.8
			c-0.7-0.5-1.5-1.2-3.1-1.2s-2.5,0.7-3.2,1.2c-0.6,0.5-1,0.8-1.9,0.8s-1.4-0.3-2.1-0.8c-0.7-0.5-1.7-1.2-3.3-1.2v2
			c1,0,1.5,0.4,2.2,0.8c0.7,0.6,1.6,1.2,3.2,1.2c1.6,0,2.4-0.7,3.1-1.2c0.6-0.5,1-0.8,2-0.8c0.9,0,1.3,0.3,1.9,0.8
			c0.7,0.5,1.5,1.2,3.2,1.2c1.6,0,2.4-0.7,3.1-1.2c0.6-0.5,1-0.8,2-0.8c0.9,0,1.3,0.3,1.9,0.8c0.7,0.5,1.5,1.2,3.2,1.2
			c1.6,0,2.4-0.7,3.1-1.2c0.6-0.5,1-0.8,2-0.8c0.9,0,1.3,0.3,1.9,0.8c0.6,0.5,1.3,1,2.5,1.2c0.1,0,0.2,0,0.3,0h0.4
			c0.1,0,0.2,0,0.3,0c1.1-0.2,1.8-0.8,2.4-1.2c0.6-0.5,1-0.8,2-0.8c0.9,0,1.3,0.3,1.9,0.8c0.7,0.5,1.5,1.2,3.2,1.2
			c1.6,0,2.4-0.7,3.1-1.2c0.6-0.5,1-0.8,2-0.8c0.9,0,1.3,0.3,1.9,0.8c0.7,0.5,1.5,1.2,3.2,1.2v-2c-1,0-1.4-0.3-2-0.8
			C55.362,56.825,54.562,56.125,52.962,56.125z"/>
		<path d="M56.062,50.325c-0.7-0.5-1.5-1.2-3.1-1.2s-2.5,0.7-3.2,1.2c-0.6,0.5-1,0.8-1.9,0.8c-1,0-1.4-0.3-2-0.8
			c-0.7-0.5-1.5-1.2-3.1-1.2s-2.5,0.7-3.2,1.2c-0.6,0.5-0.9,0.8-1.7,0.8s-1.3-0.4-1.8-0.8c-0.7-0.5-1.5-1.2-3.1-1.2
			s-2.5,0.7-3.2,1.2c-0.6,0.5-1,0.8-1.9,0.8c-1,0-1.4-0.3-2-0.8c-0.7-0.5-1.5-1.2-3.1-1.2s-2.5,0.7-3.2,1.2c-0.6,0.5-1,0.8-1.9,0.8
			c-1,0-1.4-0.3-2-0.8c-0.7-0.5-1.5-1.2-3.1-1.2s-2.5,0.7-3.2,1.2c-0.6,0.5-1,0.8-1.9,0.8s-1.4-0.3-2.1-0.8
			c-0.7-0.5-1.7-1.2-3.3-1.2v2c1,0,1.5,0.4,2.2,0.8c0.7,0.6,1.6,1.2,3.2,1.2c1.6,0,2.4-0.7,3.1-1.2c0.6-0.5,1-0.8,2-0.8
			c0.9,0,1.3,0.3,1.9,0.8c0.7,0.5,1.5,1.2,3.2,1.2c1.6,0,2.4-0.7,3.1-1.2c0.6-0.5,1-0.8,2-0.8c0.9,0,1.3,0.3,1.9,0.8
			c0.7,0.5,1.5,1.2,3.2,1.2c1.6,0,2.4-0.7,3.1-1.2c0.6-0.5,1-0.8,2-0.8c0.9,0,1.3,0.3,1.9,0.8c0.6,0.5,1.3,1,2.5,1.2
			c0.1,0,0.2,0,0.3,0h0.4c0.1,0,0.2,0,0.3,0c1.1-0.2,1.8-0.8,2.4-1.2c0.6-0.5,1-0.8,2-0.8c0.9,0,1.3,0.3,1.9,0.8
			c0.7,0.5,1.5,1.2,3.2,1.2c1.6,0,2.4-0.7,3.1-1.2c0.6-0.5,1-0.8,2-0.8c0.9,0,1.3,0.3,1.9,0.8c0.7,0.5,1.5,1.2,3.2,1.2v-2
			C57.062,51.125,56.662,50.825,56.062,50.325z"/>
		<rect x="21.062" y="41.125" width="3" height="2"/>
		<path d="M47.062,18.125c5,0,9-4,9-9s-4-9-9-9s-9,4-9,9S42.062,18.125,47.062,18.125z M47.062,2.125c3.9,0,7,3.1,7,7s-3.1,7-7,7
			s-7-3.1-7-7S43.162,2.125,47.062,2.125z"/>
		<path d="M46.062,12.125c0.3,0,0.5-0.1,0.7-0.3l5-5l-1.4-1.4l-4.3,4.3l-2.3-2.3l-1.4,1.4l3,3
			C45.562,12.025,45.762,12.125,46.062,12.125z"/>
	</g>
</g>
</svg>